<?xml version="1.0" encoding="utf-8"?>
<!-- Generator: Adobe Illustrator 23.0.2, SVG Export Plug-In . SVG Version: 6.00 Build 0)  -->
<svg version="1.1" id="Layer_1" xmlns="http://www.w3.org/2000/svg" xmlns:xlink="http://www.w3.org/1999/xlink" x="0px" y="0px"
	 viewBox="0 0 699.9 489.5" style="enable-background:new 0 0 699.9 489.5;" xml:space="preserve">
<style type="text/css">
	.st0{fill:#FFFFFF;stroke:#000000;stroke-width:2;stroke-miterlimit:10;}
	.st1{fill:none;stroke:#010101;stroke-width:0.75;stroke-miterlimit:10;}
	.st2{fill:#46C8F5;stroke:#010101;stroke-miterlimit:10;}
	.st3{fill:none;stroke:#010101;stroke-miterlimit:10;}
	.st4{fill:none;stroke:#010101;stroke-width:2;stroke-miterlimit:10;}
	.st5{fill:none;stroke:#010101;stroke-width:4;stroke-miterlimit:10;}
	.st6{fill:#010101;}
</style>
<circle class="st0" cx="197.7" cy="106.8" r="99.4"/>
<circle class="st0" cx="495.8" cy="382.6" r="100"/>
<path class="st1" d="M4.4,123.4c0.5,0,1.1,8.4,1.7,8.4c0.5,0,1.1-7.2,1.6-7.2c0.6,0,1.2,9.8,1.8,9.8c0.6,0,1.3-17,2-17
	c0.7,0,1.5,23.1,2.2,23.1c0.8,0,1.6-24.7,2.4-24.7c0.8,0,1.7,23.3,2.5,23.3c0.8,0,1.6-18.9,2.4-18.9c0.7,0,1.5,15.8,2.2,15.8
	c0.6,0,1.3-13,2-13c0.5,0,1.1,5.8,1.6,5.8c0.5,0,1-4.9,1.5-4.9c0.6,0,1.3,16.5,1.9,16.5c0.8,0,1.6-24,2.3-24
	c0.6,0,1.2,16.5,1.9,16.5c0.5,0,1.1-8.4,1.6-8.4s1.1,6.3,1.6,6.3c0.5,0,0.9-8.6,1.4-8.6c0.7,0,1.4,21.2,2.1,21.2
	c0.6,0,1.2-24,1.9-24c0.6,0,1.2,9.8,1.8,9.8c0.5,0,1.1-7,1.6-7c0.5,0,0.9,6.3,1.4,6.3c0.4,0,0.8-1.4,1.2-1.4c0.7,0,1.3,11.4,2,11.4
	c0.9,0,1.8-22.1,2.6-22.1c1,0,1.8,21.9,2.6,21.9c1.1,0,1.9-19.3,2.6-19.3c1.2,0,1,11.1,2.1,11.1c0.6,0,0.6-2.7,1.8-2.7
	c0.4,0,1,3,1.6,3c0.7,0,1.4-12.1,2.2-12.1c0.7,0,1.5,12.8,2.4,12.8c0.6,0,1.3-5.6,2-5.6c0.8,0,1.6,7.7,2.4,7.7
	c0.7,0,1.5-2.3,2.2-2.3c0.6,0,1.2-11.9,1.8-11.9c0.5,0,1.1,4.2,1.7,4.2c0.4,0,0.9-1.9,1.4-1.9c0.6,0,1.2,15.6,1.8,15.6
	c0.6,0,1.3-13.3,1.9-13.3c0.5,0,1,12.3,1.5,12.3c0.7,0,1.3-23.5,2-23.5c0.8,0,1.7,31.7,2.6,31.7c0.4,0,0.8-7,1.1-13.5"/>
<path class="st1" d="M90.4,80c-0.3,5.7-0.6,11.1-0.9,11.1s-0.7-1.4-1-1.4c-0.4,0-0.9,2.6-1.3,2.6c-0.8,0-1.6-18.9-2.3-18.9
	C84,73.4,83.1,89,82.2,89c-0.8,0-1.6-10.4-2.4-10.4c-0.5,0-1,3-1.6,3c-0.2,0-0.4-0.6-0.6-0.6c-0.7,0-1.5,11.6-2.2,11.6
	c-1.3,0-2.5-19.8-3.7-19.8c-0.8,0-1.7,18.2-2.4,18.2c-0.6,0-1.2-13.9-1.8-13.9c-1.1,0-2.1,10.4-3,10.4c-0.6,0-1.1-5-1.6-5
	c-0.5,0-0.9,5.2-1.3,5.2c-0.6,0-1.2-16.1-1.8-16.1c-0.8,0-1.4,19.4-1.9,19.4c-1,0-0.6-12-1.8-12c-0.8,0-1.1,16.5-2.1,16.5
	c-0.8,0-1.8-24.3-2.9-24.3c-0.6,0-1.3,14.2-2,14.2c-0.7,0-1.4,3.1-2.1,3.1c-0.5,0-1-8.5-1.6-8.5c-0.5,0-1,7.3-1.5,7.3
	c-0.6,0-1.1-9.9-1.7-9.9c-0.6,0-1.2,17.3-1.9,17.3c-0.7,0-1.4-23.4-2.1-23.4c-0.7,0-1.5,25-2.2,25c-0.8,0-1.6-23.6-2.4-23.6
	c-0.8,0-1.5,19.1-2.3,19.1c-0.7,0-1.4-16.1-2-16.1c-0.6,0-1.2,13.2-1.8,13.2c-0.5,0-1-5.9-1.5-5.9c-0.5,0-0.9,5-1.4,5
	c-0.6,0-1.2-16.8-1.8-16.8c-0.7,0-1.5,24.3-2.2,24.3c-0.6,0-1.2-16.8-1.8-16.8c-0.5,0-1,8.5-1.5,8.5c-0.5,0-1-6.4-1.5-6.4
	c-0.4,0-0.9,8.7-1.3,8.7c-0.7,0-1.3-21.5-2-21.5c-0.6,0-1.2,24.3-1.8,24.3c-0.6,0-1.1-9.9-1.7-9.9c-0.5,0-1,7.1-1.5,7.1
	c-0.4,0-0.9-6.4-1.3-6.4c-0.4,0-0.8,1.4-1.2,1.4C4.4,84.6,3.8,73,3.2,73c-0.9,0-1.7,22.4-2.5,22.4"/>
<path class="st1" d="M15.7,37.5c0.3,5.7,0.6,11.1,0.9,11.1c0.3,0,0.7-1.4,1-1.4c0.4,0,0.9,2.6,1.3,2.6c0.8,0,1.6-18.9,2.3-18.9
	c0.9,0,1.7,15.6,2.6,15.6c0.8,0,1.6-10.4,2.4-10.4c0.5,0,1,3,1.6,3c0.2,0,0.4-0.6,0.6-0.6c0.7,0,1.5,11.6,2.2,11.6
	c1.3,0,2.5-19.8,3.7-19.8c0.8,0,1.7,18.2,2.4,18.2c0.6,0,1.2-13.9,1.8-13.9c1.1,0,2.1,10.4,3,10.4c0.6,0,1.1-5,1.6-5
	c0.5,0,0.9,5.2,1.3,5.2c0.6,0,1.2-16.1,1.8-16.1c0.8,0,1.4,19.4,1.9,19.4c1,0,0.6-12,1.8-12c0.8,0,1.1,16.5,2.1,16.5
	c0.8,0,1.8-24.3,2.9-24.3c0.6,0,1.3,14.2,2,14.2c0.7,0,1.4,3.1,2.1,3.1c0.5,0,1-8.5,1.6-8.5c0.5,0,1,7.3,1.5,7.3
	c0.6,0,1.1-9.9,1.7-9.9c0.6,0,1.2,17.3,1.9,17.3c0.7,0,1.4-23.4,2.1-23.4c0.7,0,1.5,25,2.2,25c0.8,0,1.6-23.6,2.4-23.6
	c0.8,0,1.5,19.1,2.3,19.1c0.7,0,1.4-16.1,2-16.1c0.6,0,1.2,13.2,1.8,13.2c0.5,0,1-5.9,1.5-5.9c0.5,0,0.9,5,1.4,5
	c0.6,0,1.2-16.8,1.8-16.8c0.7,0,1.5,24.3,2.2,24.3c0.6,0,1.2-16.8,1.8-16.8c0.5,0,1,8.5,1.5,8.5c0.5,0,1-6.4,1.5-6.4
	c0.4,0,0.9,8.7,1.3,8.7c0.7,0,1.3-21.5,2-21.5c0.6,0,1.2,24.3,1.8,24.3c0.6,0,1.1-9.9,1.7-9.9c0.5,0,1,7.1,1.5,7.1
	c0.4,0,0.9-6.4,1.3-6.4c0.4,0,0.8,1.4,1.2,1.4c0.6,0,1.2-11.6,1.8-11.6c0.9,0,1.7,22.4,2.5,22.4"/>
<path class="st1" d="M21.1,163.7c1,0,1.9,18.9,2.7,18.9c1.1,0,2-16.6,2.7-16.6c1.3,0,1,9.5,2.1,9.5c0.7,0,0.6-2.3,1.8-2.3
	c0.5,0,1,2.6,1.6,2.6c0.7,0,1.5-10.4,2.3-10.4c0.7,0,1.6,11,2.4,11c0.7,0,1.4-4.8,2.1-4.8c0.8,0,1.6,6.6,2.4,6.6c0.7,0,1.5-2,2.2-2
	c0.6,0,1.2-10.2,1.8-10.2c0.5,0,1.1,3.6,1.7,3.6c0.5,0,0.9-1.6,1.4-1.6c0.6,0,1.2,13.4,1.8,13.4c0.6,0,1.3-11.4,1.9-11.4
	c0.5,0,1,10.6,1.5,10.6c0.7,0,1.3-20.3,2-20.3c0.9,0,1.7,27.3,2.6,27.3c0.4,0,0.9-16,1.6-16c0.5,0,1.1,6.7,1.8,6.7
	c0.7,0,1.1-10.9,1.4-10.9c0.3,0,0.7,1.2,1.1,1.2c0.5,0,0.9-2.2,1.4-2.2c0.8,0,1.7,16,2.5,16c0.9,0,1.9-13.2,2.8-13.2
	c0.9,0,1.8,8.8,2.6,8.8c0.6,0,1.1-2.5,1.7-2.5c0.2,0,0.4,0.5,0.6,0.5c0.8,0,1.6-9.8,2.4-9.8c1.4,0,2.7,16.9,3.9,16.9
	c0.9,0,1.8-15.5,2.6-15.5c0.7,0,1.3,11.8,2,11.8c1.1,0,2.2-8.8,3.3-8.8c0.6,0,1.2,4.2,1.8,4.2c0.5,0,1-4.4,1.4-4.4
	c0.7,0,1.3,13.7,1.9,13.7c0.8,0,1.5-16.4,2.1-16.4c1.1,0,0.7,10.2,1.9,10.2c0.9,0,1.1-14,2.2-14c0.9,0,1.9,20.7,3.2,20.7
	c0.7,0,1.4-12,2.1-12c0.7,0,1.5-2.6,2.3-2.6"/>
<path class="st1" d="M603.6,403c0.5,0,1.1,8.4,1.7,8.4c0.5,0,1.1-7.3,1.6-7.3c0.6,0,1.2,9.9,1.8,9.9c0.6,0,1.3-17.1,2-17.1
	c0.7,0,1.5,23.2,2.3,23.2c0.8,0,1.6-24.8,2.4-24.8c0.8,0,1.7,23.4,2.5,23.4c0.8,0,1.6-19,2.5-19c0.7,0,1.5,15.9,2.2,15.9
	c0.6,0,1.3-13.1,2-13.1c0.5,0,1.1,5.9,1.6,5.9c0.5,0,1-4.9,1.5-4.9c0.6,0,1.3,16.6,1.9,16.6c0.8,0,1.6-24.1,2.3-24.1
	c0.6,0,1.2,16.6,1.9,16.6c0.5,0,1.1-8.4,1.6-8.4c0.5,0,1.1,6.3,1.6,6.3c0.5,0,1-8.7,1.4-8.7c0.7,0,1.4,21.3,2.1,21.3
	c0.6,0,1.3-24.1,1.9-24.1c0.6,0,1.2,9.9,1.8,9.9c0.5,0,1.1-7,1.6-7c0.5,0,0.9,6.3,1.4,6.3c0.4,0,0.8-1.4,1.3-1.4
	c0.7,0,1.3,11.5,2,11.5c0.9,0,1.8-22.3,2.7-22.3c1,0,1.9,22,2.7,22c1.1,0,1.9-19.5,2.7-19.5c1.3,0,1,11.1,2.1,11.1
	c0.6,0,0.6-2.7,1.8-2.7c0.4,0,1,3,1.6,3c0.7,0,1.4-12.2,2.3-12.2c0.7,0,1.6,12.9,2.4,12.9c0.7,0,1.4-5.6,2.1-5.6
	c0.8,0,1.6,7.7,2.4,7.7c0.7,0,1.5-2.3,2.2-2.3c0.6,0,1.2-11.9,1.8-11.9c0.5,0,1.1,4.2,1.7,4.2c0.5,0,0.9-1.9,1.4-1.9
	c0.6,0,1.2,15.7,1.8,15.7c0.6,0,1.3-13.4,1.9-13.4c0.5,0,1,12.4,1.5,12.4c0.7,0,1.3-23.7,2-23.7c0.9,0,1.7,31.9,2.6,31.9
	c0.4,0,0.8-7,1.1-13.6"/>
<path class="st1" d="M692.4,359.3c-0.3,5.8-0.6,11.2-0.9,11.2s-0.7-1.4-1-1.4c-0.4,0-0.9,2.6-1.3,2.6c-0.8,0-1.6-19-2.3-19
	c-0.9,0-1.8,15.7-2.6,15.7c-0.8,0-1.7-10.5-2.4-10.5c-0.5,0-1,3-1.6,3c-0.2,0-0.4-0.6-0.6-0.6c-0.8,0-1.5,11.7-2.2,11.7
	c-1.3,0-2.5-20-3.7-20c-0.8,0-1.7,18.3-2.4,18.3c-0.6,0-1.3-14-1.9-14c-1.1,0-2.1,10.5-3,10.5c-0.6,0-1.1-5-1.6-5
	c-0.5,0-0.9,5.2-1.3,5.2c-0.6,0-1.2-16.2-1.8-16.2c-0.8,0-1.4,19.5-2,19.5c-1,0-0.6-12.1-1.8-12.1c-0.8,0-1.1,16.6-2.1,16.6
	c-0.8,0-1.8-24.5-2.9-24.5c-0.6,0-1.3,14.3-2,14.3c-0.7,0-1.4,3.1-2.1,3.1c-0.5,0-1-8.6-1.6-8.6c-0.5,0-1,7.4-1.5,7.4
	c-0.6,0-1.1-10-1.7-10c-0.6,0-1.2,17.4-1.9,17.4c-0.7,0-1.4-23.5-2.1-23.5c-0.7,0-1.5,25.2-2.3,25.2c-0.8,0-1.6-23.8-2.4-23.8
	c-0.8,0-1.6,19.3-2.3,19.3c-0.7,0-1.4-16.2-2.1-16.2c-0.6,0-1.2,13.3-1.9,13.3c-0.5,0-1-5.9-1.5-5.9c-0.5,0-0.9,5-1.4,5
	c-0.6,0-1.2-16.9-1.8-16.9c-0.7,0-1.5,24.5-2.2,24.5c-0.6,0-1.2-16.9-1.8-16.9c-0.5,0-1,8.6-1.5,8.6c-0.5,0-1-6.4-1.5-6.4
	c-0.4,0-0.9,8.8-1.3,8.8c-0.7,0-1.4-21.6-2-21.6c-0.6,0-1.2,24.5-1.8,24.5c-0.6,0-1.1-10-1.7-10c-0.5,0-1,7.1-1.5,7.1
	c-0.4,0-0.9-6.4-1.3-6.4c-0.4,0-0.8,1.4-1.2,1.4c-0.6,0-1.3-11.7-1.9-11.7c-0.9,0-1.7,22.6-2.5,22.6"/>
<path class="st1" d="M587.8,316.6c0.3,5.8,0.6,11.2,0.9,11.2c0.3,0,0.7-1.4,1-1.4c0.4,0,0.9,2.6,1.3,2.6c0.8,0,1.6-19,2.3-19
	c0.9,0,1.8,15.7,2.6,15.7c0.8,0,1.7-10.5,2.4-10.5c0.5,0,1,3,1.6,3c0.2,0,0.4-0.6,0.6-0.6c0.8,0,1.5,11.7,2.2,11.7
	c1.3,0,2.5-20,3.7-20c0.8,0,1.7,18.3,2.4,18.3c0.6,0,1.3-14,1.9-14c1.1,0,2.1,10.5,3,10.5c0.6,0,1.1-5,1.6-5c0.5,0,0.9,5.2,1.3,5.2
	c0.6,0,1.2-16.2,1.8-16.2c0.8,0,1.4,19.5,2,19.5c1,0,0.6-12.1,1.8-12.1c0.8,0,1.1,16.6,2.1,16.6c0.8,0,1.8-24.5,2.9-24.5
	c0.6,0,1.3,14.3,2,14.3c0.7,0,1.4,3.1,2.1,3.1c0.5,0,1-8.6,1.6-8.6c0.5,0,1,7.4,1.5,7.4c0.6,0,1.1-10,1.7-10
	c0.6,0,1.2,17.4,1.9,17.4c0.7,0,1.4-23.5,2.1-23.5s1.5,25.2,2.3,25.2c0.8,0,1.6-23.8,2.4-23.8c0.8,0,1.6,19.3,2.3,19.3
	c0.7,0,1.4-16.2,2.1-16.2c0.6,0,1.2,13.3,1.9,13.3c0.5,0,1-5.9,1.5-5.9c0.5,0,0.9,5,1.4,5c0.6,0,1.2-16.9,1.8-16.9
	c0.7,0,1.5,24.5,2.2,24.5c0.6,0,1.2-16.9,1.8-16.9c0.5,0,1,8.6,1.5,8.6c0.5,0,1-6.4,1.5-6.4c0.4,0,0.9,8.8,1.3,8.8
	c0.7,0,1.4-21.6,2-21.6c0.6,0,1.2,24.5,1.8,24.5c0.6,0,1.1-10,1.7-10c0.5,0,1,7.1,1.5,7.1c0.4,0,0.9-6.4,1.3-6.4
	c0.4,0,0.8,1.4,1.2,1.4c0.6,0,1.3-11.7,1.9-11.7c0.9,0,1.7,22.6,2.5,22.6"/>
<path class="st1" d="M586.5,443.5c1,0,1.9,19,2.7,19c1.1,0,2-16.8,2.7-16.8c1.3,0,1,9.6,2.1,9.6c0.7,0,0.7-2.3,1.8-2.3
	c0.5,0,1,2.6,1.6,2.6c0.7,0,1.5-10.5,2.3-10.5c0.8,0,1.6,11.1,2.4,11.1c0.7,0,1.4-4.8,2.1-4.8c0.8,0,1.6,6.7,2.4,6.7
	c0.7,0,1.5-2,2.3-2c0.6,0,1.2-10.3,1.8-10.3c0.5,0,1.1,3.6,1.7,3.6c0.5,0,0.9-1.6,1.4-1.6c0.6,0,1.2,13.5,1.8,13.5
	c0.6,0,1.3-11.5,1.9-11.5c0.5,0,1,10.7,1.5,10.7c0.7,0,1.4-20.4,2-20.4c0.9,0,1.7,27.5,2.6,27.5c0.4,0,0.9-16.1,1.6-16.1
	c0.5,0,1.1,6.8,1.8,6.8c0.7,0,1.1-11,1.5-11c0.3,0,0.7,1.2,1.1,1.2c0.5,0,0.9-2.2,1.4-2.2c0.8,0,1.7,16.1,2.5,16.1
	c0.9,0,1.9-13.3,2.8-13.3c0.9,0,1.8,8.9,2.6,8.9c0.6,0,1.1-2.5,1.7-2.5c0.2,0,0.4,0.5,0.6,0.5c0.8,0,1.6-9.9,2.4-9.9
	c1.4,0,2.7,17,4,17c0.9,0,1.8-15.6,2.6-15.6c0.7,0,1.4,11.9,2,11.9c1.2,0,2.2-8.9,3.3-8.9c0.6,0,1.2,4.2,1.8,4.2
	c0.5,0,1-4.4,1.5-4.4c0.7,0,1.3,13.7,1.9,13.7c0.8,0,1.5-16.5,2.1-16.5c1.1,0,0.7,10.3,1.9,10.3c0.9,0,1.1-14.1,2.3-14.1
	c0.9,0,1.9,20.8,3.2,20.8c0.7,0,1.4-12.1,2.1-12.1s1.5-2.6,2.3-2.6"/>
<g>
	<circle class="st2" cx="222.1" cy="160.1" r="14.1"/>
	<circle class="st2" cx="258.2" cy="92.8" r="14.1"/>
	<circle class="st2" cx="183.6" cy="100.1" r="14.1"/>
	<circle class="st2" cx="204" cy="45.3" r="14.1"/>
	<circle class="st2" cx="142.8" cy="142.3" r="14.1"/>
</g>
<path class="st3" d="M190.4,44.5c0,0-70.1,9.1-56.6,87l0,0"/>
<path class="st3" d="M177,112.4L177,112.4c-2.9,9.8-10.9,17.1-20.8,19.2l-3.5,0.7"/>
<path class="st3" d="M193.1,110.4l2,0.7c13.8,5.1,27,20.2,27,34.9"/>
<path class="st3" d="M258.2,106.8L258.2,106.8c8.3,32.4-22.1,53.3-22.1,53.3"/>
<path class="st3" d="M256.4,78.7c-5.6-29.4-38.6-36.3-38.6-36.3"/>
<path class="st3" d="M151.2,153.6L151.2,153.6c15,14.4,35.9,20.9,56.4,17.3l4.6-0.8"/>
<path class="st3" d="M197.7,100.1l1.4,0.8c15,8.9,34.1,5.4,45.1-8.1l0,0"/>
<path class="st3" d="M142.8,128.3L142.8,128.3c3.7-47.9,58.2-73.6,97.5-46l5.2,3.7"/>
<g>
	<g>
		<circle class="st2" cx="454.6" cy="365.4" r="14.1"/>
		<circle class="st2" cx="460.6" cy="438.5" r="14.1"/>
		<circle class="st2" cx="507.8" cy="386.6" r="14.1"/>
		<circle class="st2" cx="553.1" cy="414.1" r="14.1"/>
		<circle class="st2" cx="519.4" cy="323.1" r="14.1"/>
	</g>
	<path class="st3" d="M512.3,373.2L512.3,373.2c8.7-9.8,11.6-23.4,7.5-35.8l-0.1-0.2"/>
	<path class="st3" d="M559.2,401.4l1.4-2.8c26.3-53.6-27.1-77.6-27.1-77.6"/>
	<path class="st3" d="M454.6,425.6l0.8-1.5c7.9-15.4,4.9-34.2-7.5-46.3l0,0"/>
	<path class="st3" d="M468.7,365.4l1-0.3c10.9-3.6,22.9,1.3,28.1,11.6l0,0"/>
	<path class="st3" d="M464.6,375.4L464.6,375.4c5.3,30.1,36.5,48.1,65.3,37.6l9.2-3.4"/>
	<path class="st3" d="M456,351.3l0.2-1c4.6-23.2,27.3-38,50.4-33.1l0,0"/>
	<path class="st3" d="M543.1,404.1L543.1,404.1c-3.9-8.3-12.7-13-21.8-11.8l-0.7,0.1"/>
	<path class="st3" d="M470.6,448.5l4.2,2.2c27.4,14.4,61.4,4.4,76.7-22.5l0,0"/>
	<path class="st3" d="M446.8,435.2l-4.3-4.5c-42.6-45-15-126.2,50-127c18.5-0.2,24.2,5.3,24.2,5.3"/>
</g>
<path class="st4" d="M266.6,289.8H281c1.2,0,2.3,0.9,2.8,2.3l4.1,11c1.2,3.2,4.6,3.1,5.7,0l4.7-12.2c0.2-0.7,1.4-1.2,2.7-1.2h16.4
	h6.9h4.9c1.2,0,2.2,0.8,2.8,2.2l2.7,6.4c1.2,2.9,4.4,2.9,5.6-0.1l2.5-6.3c0.6-1.4,1.6-2.2,2.8-2.2h7.6l0,0h7c1.3,0,2.5-0.9,3.1-2.3
	l4.6-10.8c1.3-3.1,5-3,6.3,0l3,7.2c1.1,2.7,4.2,3.2,5.9,0.8l3.4-4.9c1.4-2,4.1-2,5.5,0l5.7,8.3c0.7,1,1.7,1.6,2.7,1.6h7.6h5.4
	c1.3,0,2.4-0.8,3.1-2.1l3-6.3c1.4-2.9,4.8-2.8,6.1,0.1l2.8,6.1c0.6,1.4,1.8,2.2,3.1,2.2h8.3"/>
<path class="st4" d="M439.8,260.7h-7c-1.3,0-2.5-2-3.1-5l-4.6-23.8c-1.3-6.8-5-6.7-6.3,0.1l-3,15.9c-1.1,6-4.2,7-5.9,1.8l-3.4-10.9
	c-1.4-4.5-4.1-4.5-5.5,0.1l-5.7,18.4c-0.7,2.2-1.7,3.4-2.7,3.4H385h-5.4c-1.3,0-2.4-1.8-3.1-4.7l-3-13.9c-1.4-6.3-4.8-6.2-6.1,0.2
	l-2.8,13.6c-0.6,3-1.8,4.8-3.1,4.8h-8.3l0,0h-7c-1.3,0-2.5-2-3.1-5l-4.6-23.8c-1.3-6.8-5-6.7-6.3,0.1l-3,15.9c-1.1,6-4.2,7-5.9,1.8
	l-3.4-10.9c-1.4-4.5-4.1-4.5-5.5,0.1l-5.7,18.4c-0.7,2.2-1.7,3.4-2.7,3.4h-7.6h-5.4c-1.3,0-2.4-1.8-3.1-4.7l-3-13.9
	c-1.4-6.3-4.8-6.2-6.1,0.2l-2.8,13.6c-0.6,3-1.8,4.8-3.1,4.8h-8.3"/>
<path class="st4" d="M266.6,217.8h7c1.3,0,2.5-2.6,3.1-6.9l4.6-32.2c1.3-9.2,5-9.1,6.3,0.1l3,21.5c1.1,8.1,4.2,9.5,5.9,2.4l3.4-14.8
	c1.4-6.1,4.1-6.1,5.5,0.1l5.7,25c0.7,2.9,1.7,4.7,2.7,4.7h7.6h5.4c1.3,0,2.4-2.4,3.1-6.3l3-18.9c1.4-8.5,4.8-8.4,6.1,0.2l2.8,18.4
	c0.6,4,1.8,6.5,3.1,6.5h8.3l0,0h14.4c1.2,0,2.3-2.2,2.8-5.7l4.1-26.8c1.2-7.7,4.6-7.6,5.7,0.1l4.7,29.6c0.2,1.6,1.4,2.8,2.7,2.8H404
	h6.9h4.9c1.2,0,2.2-2,2.8-5.3l2.7-15.7c1.2-7.1,4.4-7,5.6,0.2l2.5,15.3c0.6,3.4,1.6,5.4,2.8,5.4h7.6"/>
<g>
	<g>
		<path class="st5" d="M261.4,339.5c-46.8,33.2-110.5,28.1-144.8-8.1c-35-36.9-36.9-103.5,3.4-150.3"/>
		<g>
			<polygon class="st6" points="238.9,325.5 287.1,315 272.1,361.9 			"/>
		</g>
	</g>
</g>
<g>
	<g>
		<path class="st5" d="M406.6,175.5c45.9-58.4,129.3-59.8,170.5-16.3c28,29.6,34.9,78.2,15.7,120.4"/>
		<g>
			<polygon class="st6" points="574.7,260.1 573.6,309.4 616.8,285.7 			"/>
		</g>
	</g>
</g>
</svg>
